<svg version="1.1" xmlns="http://www.w3.org/2000/svg" xmlns:xlink="http://www.w3.org/1999/xlink" viewBox="0 0 23.569 23.2312">
 <g>
  <rect height="23.2312" opacity="0" width="23.569" x="0" y="0"/>
  <path d="M1.14421 7.83303C1.89608 7.83303 2.29592 7.41186 2.29592 6.66749L2.29592 4.01999C2.29592 2.88139 2.88772 2.31936 3.97733 2.31936L6.6846 2.31936C7.44069 2.31936 7.85014 1.9078 7.85014 1.16554C7.85014 0.423278 7.44069 0.0234375 6.6846 0.0234375L3.84421 0.0234375C1.31484 0.0234375 0 1.31695 0 3.8196L0 6.66749C0 7.41397 0.41156 7.83303 1.14421 7.83303ZM22.0657 7.83303C22.8176 7.83303 23.2174 7.41397 23.2174 6.66749L23.2174 3.8196C23.2174 1.31695 21.9047 0.0234375 19.3732 0.0234375L16.5232 0.0234375C15.7788 0.0234375 15.3673 0.423278 15.3673 1.16554C15.3673 1.9078 15.7809 2.31936 16.5232 2.31936L19.2305 2.31936C20.3105 2.31936 20.9215 2.88139 20.9215 4.01999L20.9215 6.66749C20.9215 7.41397 21.333 7.83303 22.0657 7.83303ZM3.84421 23.2312L6.6846 23.2312C7.44069 23.2312 7.85014 22.8197 7.85014 22.087C7.85014 21.3448 7.43647 20.9353 6.6846 20.9353L3.97733 20.9353C2.88772 20.9353 2.29592 20.3733 2.29592 19.2326L2.29592 16.5851C2.29592 15.8311 1.88647 15.4195 1.14421 15.4195C0.399841 15.4195 0 15.8311 0 16.5851L0 19.4255C0 21.9356 1.31484 23.2312 3.84421 23.2312ZM16.5232 23.2312L19.3732 23.2312C21.9047 23.2312 23.2174 21.926 23.2174 19.4255L23.2174 16.5851C23.2174 15.8311 22.808 15.4195 22.0657 15.4195C21.3234 15.4195 20.9215 15.8332 20.9215 16.5851L20.9215 19.2326C20.9215 20.3733 20.3105 20.9353 19.2305 20.9353L16.5232 20.9353C15.7788 20.9353 15.3673 21.3448 15.3673 22.087C15.3673 22.8197 15.7788 23.2312 16.5232 23.2312Z" fill="black" fill-opacity="0.85"/>
  <path d="M7.20609 10.8448C7.76507 10.8448 8.16327 10.4466 8.16327 9.88757L8.16327 8.22328C8.16327 7.6664 7.76507 7.2682 7.20609 7.2682C6.66093 7.2682 6.25312 7.66851 6.25312 8.22328L6.25312 9.88757C6.25312 10.4466 6.66093 10.8448 7.20609 10.8448ZM10.669 13.5956C10.7041 13.5956 10.7414 13.5956 10.7744 13.5956C11.9812 13.5956 12.6448 12.9342 12.6448 11.7274L12.6448 8.055C12.6448 7.58015 12.3094 7.25648 11.8366 7.25648C11.3522 7.25648 11.0285 7.58015 11.0285 8.055L11.0285 11.7928C11.0285 11.9016 10.9624 11.958 10.8537 11.958L10.4953 11.958C10.046 11.958 9.69679 12.3052 9.69679 12.7523C9.69679 13.2837 10.0619 13.5956 10.669 13.5956ZM15.975 10.8448C16.5202 10.8448 16.928 10.4466 16.928 9.88757L16.928 8.22328C16.928 7.66851 16.5202 7.2682 15.975 7.2682C15.416 7.2682 15.0199 7.6664 15.0199 8.22328L15.0199 9.88757C15.0199 10.4466 15.416 10.8448 15.975 10.8448ZM11.5437 17.4614C12.9562 17.4614 14.3944 16.8478 15.4298 15.8262C15.5672 15.6867 15.6492 15.477 15.6492 15.2299C15.6492 14.7593 15.2925 14.4218 14.8315 14.4218C14.6037 14.4218 14.4291 14.5123 14.1905 14.753C13.5703 15.4083 12.5677 15.8548 11.5437 15.8548C10.5666 15.8548 9.56812 15.4296 8.89898 14.7509C8.69671 14.5582 8.52421 14.4218 8.23663 14.4218C7.78523 14.4218 7.4264 14.7593 7.4264 15.2299C7.4264 15.4376 7.50843 15.6335 7.6596 15.8102C8.60156 16.8841 10.0941 17.4614 11.5437 17.4614Z" fill="black" fill-opacity="0.85"/>
 </g>
</svg>

