<svg version="1.1" xmlns="http://www.w3.org/2000/svg" xmlns:xlink="http://www.w3.org/1999/xlink" viewBox="0 0 22.2253 21.878">
 <g>
  <rect height="21.878" opacity="0" width="22.2253" x="0" y="0"/>
  <path d="M3.84421 21.8737L18.0295 21.8737C20.5685 21.8737 21.8737 20.5802 21.8737 18.0776L21.8737 3.80577C21.8737 1.30523 20.5685 0 18.0295 0L3.84421 0C1.31484 0 0 1.30523 0 3.80577L0 18.0776C0 20.5802 1.31484 21.8737 3.84421 21.8737ZM3.97733 19.5778C2.88772 19.5778 2.29592 19.0158 2.29592 17.8772L2.29592 4.00827C2.29592 2.86967 2.88772 2.29803 3.97733 2.29803L17.8964 2.29803C18.9764 2.29803 19.5778 2.86967 19.5778 4.00827L19.5778 17.8772C19.5778 19.0158 18.9764 19.5778 17.8964 19.5778Z" fill="black" fill-opacity="0.85"/>
  <path d="M7.08796 15.8585C7.39756 15.8585 7.65936 15.7446 7.86045 15.5339L10.9427 12.4441L14.0484 15.5339C14.2495 15.735 14.4996 15.8585 14.8092 15.8585C15.4041 15.8585 15.8627 15.3881 15.8627 14.7912C15.8627 14.4984 15.7563 14.2559 15.5456 14.0473L12.4495 10.9469L15.5573 7.82741C15.7755 7.6092 15.8744 7.37624 15.8744 7.09311C15.8744 6.50577 15.4137 6.03749 14.8188 6.03749C14.5284 6.03749 14.2976 6.13968 14.0773 6.35999L10.9427 9.46359L7.84123 6.37171C7.64014 6.1589 7.39756 6.05671 7.08796 6.05671C6.50483 6.05671 6.03445 6.51538 6.03445 7.10272C6.03445 7.38585 6.15257 7.64014 6.35155 7.83702L9.45188 10.9469L6.35155 14.0569C6.15257 14.2559 6.03445 14.5102 6.03445 14.7912C6.03445 15.3881 6.50483 15.8585 7.08796 15.8585Z" fill="black" fill-opacity="0.85"/>
 </g>
</svg>

