<svg version="1.1" xmlns="http://www.w3.org/2000/svg" xmlns:xlink="http://www.w3.org/1999/xlink" viewBox="0 0 26.4604 29.6245">
 <g>
  <rect height="29.6245" opacity="0" width="26.4604" x="0" y="0"/>
  <path d="M3.51257 18.5719L22.5942 18.5719C24.6651 18.5719 26.1089 17.1675 26.1089 15.2468L26.1089 14.119C26.1089 12.2004 24.6609 10.7918 22.5942 10.7918L3.51257 10.7918C1.44586 10.7918 0 12.2004 0 14.119L0 15.2468C0 17.1675 1.44375 18.5719 3.51257 18.5719ZM3.84936 16.5471C2.83053 16.5471 2.20288 15.8756 2.20288 14.9454L2.20288 14.4183C2.20288 13.4901 2.83053 12.8166 3.84936 12.8166L22.2574 12.8166C23.2783 12.8166 23.906 13.4901 23.906 14.4183L23.906 14.9454C23.906 15.8756 23.2783 16.5471 22.2574 16.5471Z" fill="black" fill-opacity="0.85"/>
  <path d="M13.0582 29.3658C13.6296 29.3658 14.0979 28.8966 14.0979 28.3411L14.0979 24.7291L14.0149 22.7836L14.9215 23.7834L16.3331 25.2394C16.511 25.4257 16.7611 25.5459 17.0229 25.5459C17.5699 25.5459 17.9892 25.1555 17.9892 24.6105C17.9892 24.3262 17.872 24.108 17.658 23.9037L13.8201 20.3067C13.5551 20.063 13.3284 19.9662 13.0582 19.9662C12.7783 19.9662 12.5634 20.0672 12.2908 20.3067L8.45295 23.9037C8.23686 24.108 8.11967 24.3262 8.11967 24.6105C8.11967 25.1555 8.53147 25.5459 9.07428 25.5459C9.34029 25.5459 9.59787 25.4257 9.77576 25.2394L11.1991 23.7813L12.1036 22.7836L12.0089 24.7291L12.0089 28.3411C12.0089 28.8966 12.4889 29.3658 13.0582 29.3658ZM13.0582 9.40921C13.3284 9.40921 13.5551 9.3007 13.8201 9.05695L17.658 5.46211C17.872 5.26945 17.9892 5.03953 17.9892 4.75523C17.9892 4.21781 17.5699 3.81774 17.0229 3.81774C16.7611 3.81774 16.511 3.93797 16.3331 4.1243L14.9215 5.58024L14.0149 6.58219L14.0979 4.63665L14.0979 1.02468C14.0979 0.469216 13.6296 0 13.0582 0C12.4889 0 12.0089 0.469216 12.0089 1.02468L12.0089 4.63665L12.1036 6.58219L11.1991 5.58446L9.77576 4.1243C9.59787 3.93797 9.34029 3.81774 9.07428 3.81774C8.53147 3.81774 8.11967 4.21781 8.11967 4.75523C8.11967 5.03953 8.23686 5.26734 8.45295 5.46211L12.2908 9.05695C12.5655 9.3007 12.7783 9.40921 13.0582 9.40921Z" fill="black" fill-opacity="0.85"/>
 </g>
</svg>

