<svg version="1.1" xmlns="http://www.w3.org/2000/svg" xmlns:xlink="http://www.w3.org/1999/xlink" viewBox="0 0 23.243 28.0795">
 <g>
  <rect height="28.0795" opacity="0" width="23.243" x="0" y="0"/>
  <path d="M22.485 21.7966C23.0276 21.2679 23.018 20.4659 22.485 19.9488L16.4456 14.0468C16.2051 13.8159 15.8498 13.6659 15.5339 13.6659C14.8073 13.6659 14.317 14.168 14.317 14.8828C14.317 15.2318 14.4277 15.5168 14.6627 15.738L17.1771 18.1619L18.9961 19.7365L16.4874 19.6383L1.2382 19.6383C0.525465 19.6383 0 20.1541 0 20.8669C0 21.5892 0.525465 22.1072 1.2382 22.1072L16.4874 22.1072L18.9961 22.009L17.1771 23.5814L14.6627 25.9978C14.4277 26.2287 14.317 26.5137 14.317 26.8626C14.317 27.5775 14.8073 28.0795 15.5339 28.0795C15.8498 28.0795 16.2051 27.9295 16.4456 27.6987Z" fill="black" fill-opacity="0.85"/>
  <path d="M0.408513 6.29461C-0.145781 6.82335-0.124452 7.62538 0.408513 8.13491L6.44789 14.0348C6.68836 14.2753 7.04156 14.4253 7.34999 14.4253C8.07444 14.4253 8.57647 13.9158 8.57647 13.1988C8.57647 12.8594 8.45624 12.5744 8.21905 12.3436L5.71639 9.92929L3.89739 8.35475L6.40615 8.45295L21.6532 8.45295C22.3659 8.45295 22.8818 7.9371 22.8818 7.21476C22.8818 6.50203 22.3659 5.98617 21.6532 5.98617L6.40615 5.98617L3.89739 6.07477L5.71639 4.50983L8.21905 2.08592C8.45624 1.85507 8.57647 1.57968 8.57647 1.2307C8.57647 0.513747 8.07444 0.013828 7.34999 0.013828C7.04156 0.013828 6.68836 0.154218 6.44789 0.394685Z" fill="black" fill-opacity="0.85"/>
 </g>
</svg>

