<svg version="1.1" xmlns="http://www.w3.org/2000/svg" xmlns:xlink="http://www.w3.org/1999/xlink" viewBox="0 0 26.306 26.6869">
 <g>
  <rect height="26.6869" opacity="0" width="26.306" x="0" y="0"/>
  <path d="M25.9544 20.0489C25.9544 19.3948 25.4899 18.9452 24.7849 18.9452L8.13749 18.9452C7.89233 18.9452 7.80397 18.8569 7.80397 18.6096L7.80397 1.9221C7.80397 1.21172 7.30874 0.733126 6.64172 0.733126C5.97797 0.733126 5.48274 1.21172 5.48274 1.9221L5.48274 20.1455C5.48274 20.748 5.87555 21.143 6.48024 21.143L24.7849 21.143C25.4899 21.143 25.9544 20.6913 25.9544 20.0489ZM0 7.37109C0 8.03484 0.464527 8.47475 1.15991 8.47475L17.817 8.47475C18.0621 8.47475 18.1505 8.57272 18.1505 8.80827L18.1505 25.4958C18.1505 26.2062 18.6457 26.6869 19.3052 26.6869C19.9786 26.6869 20.4717 26.2062 20.4717 25.4958L20.4717 7.28414C20.4717 6.67946 20.0789 6.27704 19.4763 6.27704L1.15991 6.27704C0.464527 6.27704 0 6.72867 0 7.37109Z" fill="black" fill-opacity="0.85"/>
 </g>
</svg>

