<svg version="1.1" xmlns="http://www.w3.org/2000/svg" xmlns:xlink="http://www.w3.org/1999/xlink" viewBox="0 0 22.4906 22.2126">
 <g>
  <rect height="22.2126" opacity="0" width="22.4906" x="0" y="0"/>
  <path d="M4.40578 2.20546C5.00929 2.20546 5.5064 1.70624 5.5064 1.10273C5.5064 0.499217 5.00929 0 4.40578 0C3.80015 0 3.30304 0.499217 3.30304 1.10273C3.30304 1.70624 3.80015 2.20546 4.40578 2.20546ZM7.72804 2.20546C8.33155 2.20546 8.83077 1.70624 8.83077 1.10273C8.83077 0.499217 8.33155 0 7.72804 0C7.12453 0 6.62531 0.499217 6.62531 1.10273C6.62531 1.70624 7.12453 2.20546 7.72804 2.20546ZM11.0599 2.20546C11.6634 2.20546 12.1626 1.70624 12.1626 1.10273C12.1626 0.499217 11.6634 0 11.0599 0C10.4564 0 9.95718 0.499217 9.95718 1.10273C9.95718 1.70624 10.4564 2.20546 11.0599 2.20546ZM14.3822 2.20546C14.9857 2.20546 15.4849 1.70624 15.4849 1.10273C15.4849 0.499217 14.9857 0 14.3822 0C13.7787 0 13.2794 0.499217 13.2794 1.10273C13.2794 1.70624 13.7787 2.20546 14.3822 2.20546ZM17.714 2.20546C18.3197 2.20546 18.8168 1.70624 18.8168 1.10273C18.8168 0.499217 18.3197 0 17.714 0C17.1105 0 16.6134 0.499217 16.6134 1.10273C16.6134 1.70624 17.1105 2.20546 17.714 2.20546ZM21.0384 2.20546C21.6419 2.20546 22.139 1.70624 22.139 1.10273C22.139 0.499217 21.6419 0 21.0384 0C20.4328 0 19.9357 0.499217 19.9357 1.10273C19.9357 1.70624 20.4328 2.20546 21.0384 2.20546ZM21.0384 5.52772C21.6419 5.52772 22.139 5.02851 22.139 4.42499C22.139 3.82148 21.6419 3.32226 21.0384 3.32226C20.4328 3.32226 19.9357 3.82148 19.9357 4.42499C19.9357 5.02851 20.4328 5.52772 21.0384 5.52772ZM21.0384 8.8596C21.6419 8.8596 22.139 8.36249 22.139 7.75687C22.139 7.15335 21.6419 6.65625 21.0384 6.65625C20.4328 6.65625 19.9357 7.15335 19.9357 7.75687C19.9357 8.36249 20.4328 8.8596 21.0384 8.8596ZM21.0384 12.1819C21.6419 12.1819 22.139 11.6848 22.139 11.0812C22.139 10.4756 21.6419 9.97851 21.0384 9.97851C20.4328 9.97851 19.9357 10.4756 19.9357 11.0812C19.9357 11.6848 20.4328 12.1819 21.0384 12.1819ZM21.0384 15.5158C21.6419 15.5158 22.139 15.0166 22.139 14.4131C22.139 13.8096 21.6419 13.3104 21.0384 13.3104C20.4328 13.3104 19.9357 13.8096 19.9357 14.4131C19.9357 15.0166 20.4328 15.5158 21.0384 15.5158ZM21.0384 18.8381C21.6419 18.8381 22.139 18.3389 22.139 17.7354C22.139 17.1319 21.6419 16.6326 21.0384 16.6326C20.4328 16.6326 19.9357 17.1319 19.9357 17.7354C19.9357 18.3389 20.4328 18.8381 21.0384 18.8381ZM1.00711 22.2089L20.5519 22.2089C21.191 22.2089 21.6961 21.7059 21.6961 21.0668C21.6961 20.4276 21.191 19.9226 20.5519 19.9226L2.61983 19.9226C2.38428 19.9226 2.28631 19.8246 2.28631 19.5891L2.28631 1.57755C2.28631 0.948025 1.78124 0.44506 1.13249 0.44506C0.505074 0.44506 0 0.948025 0 1.57755L0 21.2039C0 21.8065 0.402421 22.2089 1.00711 22.2089Z" fill="black" fill-opacity="0.85"/>
  <path d="M4.73858 16.5506C4.61507 17.0862 5.05475 17.4949 5.59241 17.3831L9.3342 16.5968C9.91334 16.4808 10.1252 15.8974 9.73241 15.5046L8.71873 14.4909L14.5936 8.63905L15.5817 9.65062C15.982 10.0392 16.5909 9.82944 16.7069 9.25452L17.5092 5.50522C17.6327 4.97929 17.1834 4.55882 16.6458 4.67273L12.9157 5.45905C12.3248 5.57507 12.1226 6.15843 12.5154 6.55124L13.5291 7.5628L7.6446 13.4147L6.66608 12.4052C6.26577 12.0145 5.65686 12.236 5.54296 12.7992Z" fill="black" fill-opacity="0.85"/>
 </g>
</svg>

