<svg version="1.1" xmlns="http://www.w3.org/2000/svg" xmlns:xlink="http://www.w3.org/1999/xlink" viewBox="0 0 23.4883 23.3531">
 <g>
  <rect height="23.3531" opacity="0" width="23.4883" x="0" y="0"/>
  <path d="M0 9.53718C0 14.801 4.27757 19.0765 9.53929 19.0765C11.4961 19.0765 13.2919 18.4751 14.7891 17.46L20.1729 22.8534C20.5099 23.1905 20.9564 23.351 21.4263 23.351C22.4236 23.351 23.1368 22.5973 23.1368 21.6117C23.1368 21.1481 22.9666 20.7155 22.6446 20.3935L17.3022 15.0202C18.4207 13.4815 19.0786 11.5898 19.0786 9.53718C19.0786 4.27547 14.801 0 9.53929 0C4.27757 0 0 4.27547 0 9.53718ZM2.43631 9.53718C2.43631 5.62171 5.6196 2.43631 9.53718 2.43631C13.459 2.43631 16.6402 5.62171 16.6402 9.53718C16.6402 13.4548 13.459 16.6402 9.53718 16.6402C5.6196 16.6402 2.43631 13.4548 2.43631 9.53718Z" fill="black" fill-opacity="0.85"/>
 </g>
</svg>

