<svg version="1.1" xmlns="http://www.w3.org/2000/svg" xmlns:xlink="http://www.w3.org/1999/xlink" viewBox="0 0 25.803 25.4419">
 <g>
  <rect height="25.4419" opacity="0" width="25.803" x="0" y="0"/>
  <path d="M11.5369 25.4301L13.9146 25.4301C14.8823 25.4301 15.6487 24.8287 15.8627 23.9025L16.3392 21.8292L16.6509 21.7214L18.4598 22.83C19.2764 23.3304 20.2312 23.2101 20.9201 22.5213L22.567 20.8882C23.2643 20.193 23.3719 19.2265 22.8715 18.4237L21.7437 16.6287L21.859 16.3383L23.928 15.848C24.8447 15.634 25.4515 14.858 25.4515 13.8998L25.4515 11.588C25.4515 10.6319 24.8543 9.86554 23.928 9.63984L21.8782 9.13992L21.7533 8.83031L22.8811 7.03522C23.3815 6.23249 23.2835 5.27554 22.5766 4.57078L20.9297 2.92804C20.2505 2.24883 19.2956 2.11477 18.4791 2.61937L16.6701 3.72797L16.3392 3.60094L15.8627 1.52765C15.6487 0.599295 14.8823 0 13.9146 0L11.5369 0C10.5691 0 9.80273 0.603513 9.58875 1.52765L9.10265 3.60094L8.77171 3.72797L6.97241 2.61937C6.15585 2.11898 5.1914 2.24883 4.51219 2.92804L2.87484 4.57078C2.16797 5.27554 2.06039 6.23249 2.57039 7.03522L3.6886 8.83031L3.57328 9.13992L1.52343 9.63984C0.592967 9.86765 0 10.6319 0 11.588L0 13.8998C0 14.858 0.606795 15.634 1.52343 15.848L3.5925 16.3383L3.6982 16.6287L2.58 18.4237C2.07 19.2265 2.18719 20.193 2.88445 20.8882L4.52179 22.5213C5.21062 23.2101 6.17507 23.3304 6.99163 22.83L8.79093 21.7214L9.10265 21.8292L9.58875 23.9025C9.80273 24.8287 10.5691 25.4301 11.5369 25.4301ZM11.8277 23.3067C11.6306 23.3067 11.5294 23.2226 11.4963 23.0414L10.8016 20.1541C10.0594 19.9868 9.3471 19.6866 8.77992 19.3237L6.2421 20.8814C6.10359 20.9848 5.94585 20.9752 5.81905 20.827L4.56913 19.5792C4.44022 19.4503 4.43483 19.3118 4.52436 19.1562L6.08835 16.6376C5.76608 16.0779 5.45296 15.3741 5.2739 14.6318L2.38663 13.9488C2.20546 13.9158 2.12132 13.8145 2.12132 13.6174L2.12132 11.8608C2.12132 11.6541 2.19585 11.5645 2.38663 11.5294L5.26429 10.8368C5.44757 10.0582 5.7928 9.32882 6.06913 8.8214L4.51475 6.3028C4.41561 6.13757 4.41889 5.99905 4.5478 5.86054L5.80945 4.63194C5.94585 4.49553 6.07476 4.48592 6.2421 4.57756L8.75859 6.10639C9.28991 5.78928 10.0638 5.471 10.8091 5.2739L11.4963 2.38874C11.5294 2.20757 11.6306 2.12343 11.8277 2.12343L13.6237 2.12343C13.8209 2.12343 13.92 2.20757 13.9455 2.38874L14.652 5.29311C15.4123 5.4785 16.0936 5.78624 16.6737 6.116L19.1934 4.58178C19.3725 4.49014 19.4897 4.49764 19.6378 4.63616L20.8877 5.86476C21.0262 6.00327 21.022 6.14179 20.9229 6.30702L19.3727 8.8214C19.6566 9.32671 19.9943 10.0582 20.1755 10.8326L23.0648 11.5294C23.246 11.5645 23.3302 11.6541 23.3302 11.8608L23.3302 13.6174C23.3302 13.8145 23.2343 13.9158 23.0648 13.9488L20.1659 14.636C19.9868 15.3719 19.6833 16.0842 19.3535 16.6376L20.9112 19.1519C21.0028 19.3076 21.007 19.4461 20.8685 19.575L19.6282 20.8228C19.4897 20.9709 19.3416 20.9784 19.1934 20.8772L16.6662 19.3237C16.0884 19.6866 15.4174 19.9784 14.652 20.1541L13.9455 23.0414C13.92 23.2226 13.8209 23.3067 13.6237 23.3067ZM12.7226 17.1588C15.1826 17.1588 17.1663 15.1751 17.1663 12.7151C17.1663 10.2551 15.1826 8.27132 12.7226 8.27132C10.2647 8.27132 8.27882 10.2551 8.27882 12.7151C8.27882 15.1751 10.2647 17.1588 12.7226 17.1588ZM12.7226 15.1484C11.378 15.1484 10.2893 14.0618 10.2893 12.7151C10.2893 11.3683 11.378 10.2818 12.7226 10.2818C14.0693 10.2818 15.1559 11.3683 15.1559 12.7151C15.1559 14.0618 14.0693 15.1484 12.7226 15.1484Z" fill="black" fill-opacity="0.85"/>
 </g>
</svg>

