<svg version="1.1" xmlns="http://www.w3.org/2000/svg" xmlns:xlink="http://www.w3.org/1999/xlink" viewBox="0 0 26.0983 25.83">
 <g>
  <rect height="25.83" opacity="0" width="26.0983" x="0" y="0"/>
  <path d="M22.2192 24.4369C22.8258 25.0338 23.794 25.0338 24.3546 24.4369C24.9323 23.8378 24.9536 22.9123 24.345 22.3132L13.1665 11.1082C12.5695 10.5209 11.6013 10.5209 11.0311 11.1082C10.4555 11.7073 10.4416 12.6424 11.0428 13.2415ZM15.4315 16.1735L11.8718 12.6021C11.6845 12.4148 11.6824 12.1265 11.8718 11.9414C12.0494 11.7616 12.3452 11.752 12.5346 11.9414L16.0976 15.5086Z" fill="black" fill-opacity="0.85"/>
  <path d="M24.5615 14.0358C25.2063 14.0358 25.7468 13.4974 25.7468 12.8623C25.7468 12.2271 25.2063 11.6909 24.5615 11.6909L20.9669 11.6909C20.3339 11.6909 19.7955 12.2271 19.7955 12.8623C19.7955 13.4974 20.3339 14.0358 20.9669 14.0358Z" fill="black" fill-opacity="0.85"/>
  <path d="M17.764 6.32625C17.3107 6.76992 17.3128 7.52741 17.7703 7.98491C18.214 8.42858 18.9832 8.42647 19.4365 7.97858L21.9436 5.45975C22.3947 5.00858 22.3926 4.24898 21.9351 3.79148C21.4936 3.34781 20.734 3.35414 20.2882 3.79781Z" fill="black" fill-opacity="0.85"/>
  <path d="M14.0496 1.17562C14.0496 0.540466 13.5112 0 12.8665 0C12.2334 0 11.6951 0.540466 11.6951 1.17562L11.6951 4.76812C11.6951 5.41288 12.2334 5.95124 12.8665 5.95124C13.5112 5.95124 14.0496 5.41288 14.0496 4.76812Z" fill="black" fill-opacity="0.85"/>
  <path d="M6.30609 7.97858C6.75187 8.42647 7.51147 8.42858 7.96264 7.98491C8.41053 7.52741 8.41264 6.76992 7.97108 6.32625L5.46397 3.80742C5.0203 3.36375 4.2607 3.34781 3.80742 3.79148C3.36164 4.23937 3.35742 4.99897 3.80109 5.45014Z" fill="black" fill-opacity="0.85"/>
  <path d="M1.1714 11.6909C0.538357 11.6909 0 12.2271 0 12.8623C0 13.4974 0.538357 14.0358 1.1714 14.0358L4.78523 14.0358C5.42038 14.0358 5.96085 13.4974 5.96085 12.8623C5.96085 12.2271 5.42038 11.6909 4.78523 11.6909Z" fill="black" fill-opacity="0.85"/>
  <path d="M3.79359 20.2563C3.3457 20.7021 3.34359 21.4713 3.77554 21.9129C4.22343 22.3608 4.99265 22.3725 5.44592 21.9309L7.96264 19.4163C8.41053 18.9705 8.41264 18.2109 7.97108 17.7694C7.5328 17.3119 6.75398 17.3097 6.31031 17.7609Z" fill="black" fill-opacity="0.85"/>
  <path d="M14.0496 20.966C14.0496 20.3212 13.5112 19.7829 12.8665 19.7829C12.2334 19.7829 11.6951 20.3212 11.6951 20.966L11.6951 24.5585C11.6951 25.1936 12.2334 25.7341 12.8665 25.7341C13.5112 25.7341 14.0496 25.1936 14.0496 24.5585Z" fill="black" fill-opacity="0.85"/>
 </g>
</svg>

